# File produced by Open Asset Import Library (http://www.assimp.sf.net)
# (assimp v3.1.202510665)

mtllib Speakers.mtl

# vertex positions
v 10.239348 19.112988 -1.351370
v 10.239348 20.120781 -0.974711
v 10.239348 20.488853 0.000001
v 10.239348 19.112988 0.000001
v 13.214794 18.917866 -9.836077
v 13.214794 18.917866 -8.454913
v 13.564450 13.071260 -6.098337
v 13.564450 12.096298 -7.135243
v 0.000000 60.000000 -22.692480
v 0.000000 60.000000 0.000001
v 13.725817 60.021652 0.000001
v 13.725817 60.021652 -22.692480
v 12.500000 36.126617 -18.444445
v 0.000000 36.126617 -18.444445
v 0.000000 0.000000 -21.803589
v 0.000000 18.917866 -18.444445
v 12.150344 18.917866 -18.444445
v 13.895762 0.000000 -21.803589
v -12.500001 18.917866 -18.444445
v -13.480059 0.000000 -21.803589
v -13.480059 0.000000 0.000001
v -12.500001 18.917866 0.000001
v -13.992219 60.000000 -22.692480
v -13.992219 60.000000 0.000001
v -12.500001 36.126617 -18.444445
v 10.758088 50.351494 0.000001
v 10.758088 49.302589 0.000001
v 10.758088 49.302589 -1.340150
v 10.758088 50.351494 -1.517760
v 13.895762 0.000000 0.000001
v 0.000000 0.000000 0.000001
v -12.500001 36.126617 0.000001
v 10.239348 19.112988 1.351372
v 10.239348 20.120781 0.974713
v 13.564450 13.071259 6.098339
v 13.564450 12.096292 7.135244
v 13.564450 9.474121 0.000001
v 13.564450 10.774183 0.000001
v 0.000000 60.000000 21.860758
v 13.725817 60.021652 21.860758
v 0.000000 0.000000 20.971869
v 13.895762 0.000000 20.971869
v 12.150344 18.917866 18.444447
v 0.000000 18.917866 18.444447
v 12.500000 36.126617 18.444447
v 0.000000 36.126617 18.444447
v -12.500001 18.917866 18.444447
v -13.480059 0.000000 20.971869
v -12.500001 36.126617 18.444447
v -13.992219 60.000000 21.860758
v 10.758088 50.351494 1.517762
v 10.758088 49.302589 1.340151
v 13.214794 18.917866 9.809510
v 13.214794 18.917866 8.454915
v 13.564447 26.036465 7.135244
v 13.564447 25.223190 6.098339
v 13.564449 28.718220 0.000001
v 13.564449 27.526028 0.000001
v 13.564450 26.036465 -7.135244
v 13.564450 25.223190 -6.098338
v 12.500000 36.126617 0.000001
v 12.499998 26.036465 7.135244
v 12.499999 28.718220 0.000001
v 12.150344 18.917866 9.809510
v 12.500000 12.096292 7.135244
v 12.500000 9.474121 0.000001
v 12.500000 12.096298 -7.135243
v 12.150344 18.917866 -9.836077
v 12.500000 26.036465 -7.135244
v 9.243816 18.983326 -6.072114
v 9.593473 14.784429 -4.379677
v 9.593473 13.134720 0.000001
v 9.593473 14.784425 4.379680
v 9.243816 18.983326 6.072116
v 9.593470 23.511648 4.379680
v 9.593472 25.165485 0.000001
v 9.593473 23.511648 -4.379678
v 9.243815 20.120781 -0.974711
v 9.243815 19.112988 -1.351370
v 9.243815 20.488853 0.000001
v 9.243815 18.178505 -0.974711
v 9.243815 17.811363 0.000001
v 9.243815 18.178505 0.974713
v 9.243815 19.112988 1.351372
v 9.243815 20.120781 0.974713
v 10.239348 18.178505 -0.974711
v 10.239348 17.811363 0.000001
v 10.239348 18.178505 0.974713
v 12.500000 44.781441 -11.694623
v 12.500000 44.781441 0.000001
v 13.193552 54.921997 -13.244495
v 13.193552 54.921997 0.000001
v 13.193552 54.921997 13.244496
v 12.500000 44.781441 11.694624
v 13.228081 44.781441 0.000001
v 13.228081 44.781441 -11.694623
v 13.228081 45.628593 -10.728415
v 13.228081 45.628593 0.000001
v 13.917698 54.846420 -13.244495
v 13.829754 54.003819 -12.150236
v 13.917698 54.846420 0.000001
v 13.829754 54.003819 0.000001
v 13.917698 54.846420 13.244496
v 13.829754 54.003819 12.150239
v 13.228081 44.781441 11.694624
v 13.228081 45.628593 10.728416
v 12.500000 45.628593 0.000001
v 12.500000 45.628593 -10.728415
v 10.187708 49.302589 -1.340150
v 10.187708 49.302589 0.000001
v 13.105608 54.079399 -12.150236
v 10.187708 50.351494 -1.517760
v 13.105608 54.079399 0.000001
v 10.187708 50.351494 0.000001
v 13.105608 54.079399 12.150239
v 10.187708 50.351494 1.517762
v 12.500000 45.628593 10.728416
v 10.187708 49.302589 1.340151

# UV coordinates
vt 0.777055 0.155149
vt 0.769081 0.144230
vt 0.837051 0.171394
vt 0.831420 0.178379
vt 0.552351 0.091626
vt 0.574868 0.086011
vt 0.662126 0.142698
vt 0.644250 0.138509
vt 0.095124 0.536156
vt 0.259502 0.738647
vt 0.243475 0.847217
vt 0.000000 0.537841
vt 0.217218 0.218265
vt 0.246120 0.314451
vt 0.499425 0.243898
vt 0.383536 0.252364
vt 0.434523 0.128248
vt 0.558162 0.200494
vt 0.367298 0.351728
vt 0.473860 0.316323
vt 0.545960 0.398339
vt 0.462406 0.462767
vt 0.192026 0.547143
vt 0.297272 0.640363
vt 0.286286 0.410581
vt 0.060982 0.127544
vt 0.069875 0.124396
vt 0.071557 0.133419
vt 0.066514 0.137096
vt 0.695873 0.269027
vt 0.618000 0.330686
vt 0.393986 0.533269
vt 0.846879 0.228666
vt 0.856925 0.236219
vt 0.820794 0.333412
vt 0.819545 0.349748
vt 0.747390 0.234084
vt 0.754774 0.229569
vt 0.428332 0.790504
vt 0.432937 0.868060
vt 0.688935 0.463700
vt 0.741534 0.413388
vt 0.786298 0.556153
vt 0.667689 0.573172
vt 0.654050 0.758725
vt 0.595982 0.691734
vt 0.571303 0.549873
vt 0.620801 0.458487
vt 0.530205 0.626291
vt 0.417653 0.707016
vt 0.056778 0.116235
vt 0.065001 0.115466
vt 0.843141 0.456108
vt 0.853023 0.436388
vt 0.853026 0.584350
vt 0.862974 0.557406
vt 0.886664 0.634051
vt 0.897969 0.601788
vt 0.442730 0.051076
vt 0.421282 0.002316
vt 0.451622 0.001424
vt 0.471778 0.047862
vt 0.770967 0.814810
vt 0.843669 0.607034
vt 0.871324 0.661122
vt 0.834995 0.472587
vt 0.816799 0.357022
vt 0.741005 0.237588
vt 0.634295 0.138302
vt 0.533765 0.096586
vt 0.418254 0.054432
vt 0.257052 0.051569
vt 0.393991 0.008270
vt 0.650114 0.097544
vt 0.707550 0.145146
vt 0.783992 0.211183
vt 0.831201 0.293581
vt 0.861320 0.362884
vt 0.894401 0.446643
vt 0.926301 0.466895
vt 0.580013 0.010689
vt 0.586217 0.045687
vt 0.726010 0.109083
vt 0.745726 0.136481
vt 0.721601 0.097425
vt 0.774532 0.162166
vt 0.817004 0.189892
vt 0.836227 0.233403
vt 0.853385 0.261442
vt 0.870806 0.289452
vt 0.880469 0.297538
vt 0.748140 0.115873
vt 0.796414 0.168430
vt 0.822186 0.184800
vt 0.835707 0.211364
vt 0.874170 0.265419
vt 0.134110 0.215952
vt 0.141764 0.105199
vt 0.044637 0.328279
vt 0.272712 0.907216
vt 0.092375 0.755111
vt 0.419963 0.912263
vt 0.571362 0.877005
vt 0.614287 0.943281
vt 0.133828 0.108075
vt 0.128487 0.215106
vt 0.120575 0.211194
vt 0.124913 0.111101
vt 0.043675 0.316916
vt 0.050469 0.292709
vt 0.093530 0.766719
vt 0.277522 0.916744
vt 0.283807 0.928154
vt 0.109874 0.791653
vt 0.421362 0.916257
vt 0.421594 0.922817
vt 0.563005 0.884807
vt 0.550205 0.896804
vt 0.598349 0.952037
vt 0.578538 0.961417
vt 0.117481 0.113413
vt 0.115039 0.209817
vt 0.075818 0.135640
vt 0.074512 0.123582
vt 0.049106 0.282204
vt 0.065664 0.140918
vt 0.110676 0.801483
vt 0.289594 0.938255
vt 0.343138 0.985477
vt 0.288852 0.981543
vt 0.422813 0.926757
vt 0.408505 0.992732
vt 0.542183 0.904330
vt 0.443968 0.988246
vt 0.561154 0.968949
vt 0.458111 0.996248
vt 0.056657 0.130016
vt 0.052488 0.118140
vt 0.056945 0.111096
vt 0.067318 0.111813

# vertex normals
vn 1.000000 0.000000 0.000000
vn 1.000000 0.000000 0.000000
vn 1.000000 -0.000000 0.000000
vn 1.000000 0.000000 0.000000
vn 0.999850 -0.000407 -0.017317
vn 0.999849 0.000359 -0.017347
vn 0.999782 0.019346 -0.007801
vn 0.999426 0.031427 -0.012671
vn -0.000781 1.000000 -0.000000
vn -0.000781 1.000000 -0.000000
vn -0.001577 0.999999 -0.000000
vn -0.001577 0.999999 0.000000
vn 0.000145 -0.175115 -0.984548
vn 0.000091 -0.109790 -0.993955
vn 0.000043 -0.105383 -0.994432
vn 0.000072 -0.175152 -0.984541
vn 0.000000 0.174830 -0.984599
vn 0.000000 0.094624 -0.995513
vn 0.000000 0.099120 -0.995076
vn 0.000000 0.174830 -0.984599
vn -0.999545 0.030177 0.000000
vn -0.998661 0.051737 0.000000
vn -0.998661 0.051737 0.000000
vn -0.999605 0.028107 0.000000
vn 0.000000 1.000000 -0.000000
vn 0.000000 1.000000 -0.000000
vn 0.000000 0.097451 -0.995240
vn 0.000000 -0.108975 -0.994044
vn 0.000000 -0.175188 -0.984535
vn 1.000000 0.000000 0.000000
vn 1.000000 0.000000 0.000000
vn 0.000000 -1.000000 0.000000
vn -0.999193 -0.040159 0.000000
vn -0.999286 -0.037786 0.000000
vn -0.998052 -0.062384 0.000000
vn -0.998052 -0.062384 0.000000
vn 1.000000 0.000000 0.000000
vn 1.000000 -0.000000 0.000000
vn 0.999785 0.019214 0.007833
vn 0.999430 0.031263 0.012745
vn -0.000781 1.000000 -0.000000
vn -0.001577 0.999999 -0.000000
vn 0.000000 0.132423 0.991193
vn 0.000000 0.132423 0.991193
vn 0.000000 0.074792 0.997199
vn 0.000000 0.071334 0.997452
vn 0.000073 -0.088511 0.996075
vn 0.000117 -0.141598 0.989924
vn 0.000058 -0.141628 0.989920
vn 0.000035 -0.084917 0.996388
vn -0.999565 0.029477 0.000000
vn -0.998661 0.051737 0.000000
vn -0.999221 -0.039475 0.000000
vn -0.998052 -0.062384 0.000000
vn 0.000000 1.000000 0.000000
vn 0.000000 -0.087856 0.996133
vn 0.000000 -0.141658 0.989916
vn 0.000000 0.073507 0.997295
vn 1.000000 0.000000 0.000000
vn 1.000000 0.000000 0.000000
vn 0.999847 -0.000403 0.017497
vn 0.999846 0.000359 0.017527
vn 0.999391 -0.033038 0.011235
vn 0.999788 -0.019482 0.006625
vn 1.000000 -0.000000 0.000000
vn 0.999387 -0.033182 -0.011160
vn 0.999786 -0.019613 -0.006596
vn 1.000000 -0.000000 0.000000
vn 0.999789 -0.018348 0.009283
vn 0.999918 -0.011435 0.005785
vn 1.000000 -0.000000 0.000000
vn 0.999426 0.033626 -0.004147
vn 0.999522 0.030739 -0.003297
vn 0.995065 0.098036 -0.015294
vn 0.994248 0.106200 -0.013891
vn 0.992640 0.121106 0.000000
vn 0.992640 0.121106 0.000000
vn 0.995103 0.097708 0.014942
vn 0.994247 0.106259 0.013483
vn 0.999387 0.034740 0.004370
vn 0.999515 0.030971 0.003265
vn 0.999789 -0.018333 -0.009287
vn 0.999918 -0.011406 -0.005778
vn 0.490505 0.354939 0.795879
vn 0.490505 0.354939 0.795879
vn 0.490505 0.354939 0.795879
vn 0.490505 0.354939 0.795879
vn 0.000000 -0.368122 -0.929777
vn 0.000000 -0.938624 0.344941
vn 0.486135 0.817792 -0.308040
vn 0.486135 0.817792 -0.308040
vn 0.486135 0.817792 -0.308040
vn 0.486135 0.817792 -0.308040
vn 0.486135 0.817792 0.308040
vn 0.486135 0.817792 0.308040
vn 0.000000 -0.938624 -0.344941
vn 0.000000 -0.364986 0.931013
vn 0.000000 -0.364986 0.931013
vn 0.490505 0.354939 -0.795879
vn 0.490505 0.354939 -0.795879
vn 0.490505 0.354939 -0.795879
vn 0.000000 0.351676 0.936122
vn 0.000000 0.351676 0.936122
vn 0.486235 -0.333286 -0.807772
vn 0.486235 -0.333286 -0.807772
vn 0.486235 -0.333286 -0.807772
vn 0.486235 -0.333286 -0.807772
vn 0.000000 0.936068 0.351818
vn 0.486019 -0.817598 -0.308738
vn 0.486019 -0.817598 -0.308738
vn 0.486019 -0.817598 -0.308738
vn 0.486019 -0.817598 -0.308738
vn 0.000000 0.936068 -0.351818
vn 0.000000 0.936068 -0.351818
vn 0.000000 0.936069 -0.351818
vn 0.486019 -0.817598 0.308739
vn 0.486019 -0.817597 0.308739
vn 0.486019 -0.817597 0.308739
vn 0.486235 -0.333286 0.807772
vn 0.486235 -0.333286 0.807772
vn 0.486235 -0.333286 0.807772
vn 0.000000 0.354732 -0.934968
vn 0.000000 0.354731 -0.934968
vn 0.000000 0.354732 -0.934968
vn 0.997517 -0.068735 0.015338
vn 0.997517 -0.068735 0.015338
vn 0.996822 -0.074529 0.028144
vn 0.996822 -0.074529 0.028144
vn 0.996822 -0.074529 0.028144
vn 0.996822 -0.074529 0.028144
vn 0.996824 0.074529 0.028073
vn 0.996824 0.074529 0.028073
vn 0.997299 0.072547 0.011455
vn 0.997299 0.072547 0.011455
vn 0.997299 0.072547 0.011455
vn 0.997299 0.072547 -0.011455
vn 0.997299 0.072547 -0.011455
vn 0.997299 0.072547 -0.011455
vn 0.996824 0.074529 -0.028073
vn 0.996824 0.074529 -0.028073
vn 0.996824 0.074529 -0.028073
vn 0.996822 -0.074529 -0.028143
vn 0.996822 -0.074529 -0.028143
vn 0.997517 -0.068734 -0.015338
vn 0.997517 -0.068734 -0.015338
vn 0.997517 -0.068734 -0.015338
vn 0.997517 -0.068734 -0.015338
vn 0.000000 0.350093 -0.936715
vn 0.000000 0.935520 -0.353272
vn 0.000000 -0.935816 -0.352490
vn 0.000000 -0.373841 -0.927493
vn 0.000000 -0.373841 0.927493
vn 0.000000 -0.935816 0.352490
vn 0.000000 0.935520 0.353272
vn 0.000000 0.350094 0.936715
vn 1.000000 0.000001 0.000000
vn 1.000000 0.000001 0.000000
vn 1.000000 0.000000 0.000000
vn 1.000000 0.000000 0.000000
vn 1.000000 0.000000 0.000000
vn 0.997857 -0.048860 0.043514
vn 0.997857 -0.048860 0.043514
vn 0.997857 -0.048860 0.043514
vn 0.994597 -0.103809 0.000000
vn 0.994597 -0.103809 0.000000
vn 0.994597 -0.103809 0.000000
vn 0.994597 -0.103809 0.000000
vn 0.994597 -0.103809 0.000000
vn 0.997711 -0.049549 -0.046024
vn 0.997711 -0.049549 -0.046024
vn 0.997711 -0.049549 -0.046024
vn 1.000000 -0.000002 0.000000
vn 0.997103 -0.062942 0.042698
vn 0.997103 -0.062942 0.042698
vn 0.994597 -0.103811 0.000000
vn 0.994597 -0.103810 0.000000
vn 0.994597 -0.103810 0.000000
vn 0.994597 -0.103810 0.000000
vn 0.997103 -0.062942 -0.042698
vn 0.997103 -0.062942 -0.042698
vn 0.997103 -0.062942 -0.042698
vn 0.997103 -0.062942 -0.042698
vn 1.000000 -0.000001 0.000000
vn 1.000000 -0.000001 0.000000
vn 0.846333 0.532655 0.000000
vn 0.846333 0.532655 0.000000
vn 0.846333 0.532654 0.000000
vn 0.967366 -0.019130 0.252662
vn 0.967366 -0.019130 0.252662
vn 0.967366 -0.019130 0.252662
vn 0.967366 -0.019130 0.252662
vn 0.787463 -0.616362 0.000000
vn 0.787463 -0.616362 0.000000
vn 0.787463 -0.616362 0.000000
vn 0.967366 -0.019130 -0.252662
vn 0.967366 -0.019130 -0.252662
vn 0.967366 -0.019130 -0.252662
vn 0.967366 -0.019130 -0.252662
vn 0.846333 0.532654 0.000000
vn 0.846333 0.532654 0.000000
vn 0.846333 0.532654 0.000000
vn 0.000000 -0.166952 -0.985965
vn 0.000000 -0.166954 0.985965
vn -0.007866 -0.151106 -0.988486
vn -0.007866 -0.151106 -0.988486
vn 0.008640 0.166031 0.986083
vn 0.008640 0.166031 0.986083
vn 0.008640 0.166031 0.986083
vn 0.008640 0.166031 0.986083
vn 0.103809 0.994597 0.000000
vn -0.103809 -0.994597 0.000000
vn -0.103809 -0.994597 0.000000
vn -0.007864 -0.151106 0.988486
vn -0.007864 -0.151106 0.988486
vn -0.007864 -0.151106 0.988486
vn 0.008641 0.166031 -0.986083
vn 0.008641 0.166031 -0.986083
vn 0.008641 0.166031 -0.986083

# Mesh
g Speaker
usemtl lambert8
f 2/2/2 3/3/3 4/4/4 1/1/1
f 7/7/7 8/8/8 5/5/5 6/6/6
f 11/11/11 12/12/12 9/9/9 10/10/10
f 12/12/13 13/13/14 14/14/15 9/9/16
f 17/17/19 18/18/20 15/15/17 16/16/18
f 22/22/24 19/19/21 20/20/22 21/21/23
f 10/10/10 9/9/9 23/23/25 24/24/26
f 16/16/18 15/15/17 20/20/20 19/19/27
f 9/9/16 14/14/15 25/25/28 23/23/29
f 29/29/2 26/26/30 27/27/31 28/28/2
f 18/18/32 30/30/32 31/31/32 15/15/32
f 25/25/33 32/32/34 24/24/35 23/23/36
f 15/15/32 31/31/32 21/21/32 20/20/32
f 3/3/3 34/34/38 33/33/37 4/4/4
f 35/35/39 36/36/40 37/37/2 38/38/2
f 40/40/42 11/11/11 10/10/10 39/39/41
f 42/42/44 43/43/45 44/44/46 41/41/43
f 45/45/47 40/40/48 39/39/49 46/46/50
f 47/47/51 22/22/24 21/21/23 48/48/52
f 32/32/34 49/49/53 50/50/54 24/24/35
f 39/39/41 10/10/10 24/24/26 50/50/55
f 46/46/50 39/39/49 50/50/57 49/49/56
f 41/41/43 44/44/46 47/47/58 48/48/44
f 26/26/30 51/51/59 52/52/60 27/27/31
f 30/30/32 42/42/32 41/41/32 31/31/32
f 31/31/32 41/41/32 48/48/32 21/21/32
f 8/8/8 7/7/7 38/38/2 37/37/2
f 36/36/40 35/35/39 54/54/62 53/53/61
f 56/56/64 55/55/63 53/53/61 54/54/62
f 58/58/65 57/57/65 55/55/63 56/56/64
f 60/62/67 59/59/66 57/60/65 58/61/65
f 59/59/66 60/62/67 6/6/6 5/5/5
f 13/13/14 17/17/19 16/16/18 14/14/15
f 14/14/15 16/16/18 19/19/27 25/25/28
f 32/32/34 25/25/33 19/19/21 22/22/24
f 49/49/53 32/32/34 22/22/24 47/47/51
f 44/44/46 46/46/50 49/49/56 47/47/58
f 43/43/45 45/45/47 46/46/50 44/44/46
f 61/63/68 45/45/69 62/64/70 63/65/71
f 62/64/70 45/45/69 43/43/72 64/66/73
f 42/42/74 65/67/75 64/66/73 43/43/72
f 42/42/74 30/30/77 66/68/76 65/67/75
f 30/30/77 18/18/78 67/69/79 66/68/76
f 67/69/79 18/18/78 17/17/80 68/70/81
f 13/13/82 69/71/83 68/70/81 17/17/80
f 13/13/82 61/72/68 63/73/71 69/71/83
f 7/7/86 6/6/87 70/74/84 71/75/85
f 5/5/88 8/8/88 67/69/88 68/70/88
f 37/37/89 36/36/89 65/67/89 66/68/89
f 35/35/92 38/38/93 72/76/90 73/77/91
f 38/38/95 7/7/94 71/75/94 72/76/94
f 8/8/96 37/37/96 66/68/96 67/69/96
f 36/36/97 53/53/97 64/66/97 65/67/98
f 54/54/100 35/35/101 73/77/99 74/78/99
f 53/53/103 55/55/102 62/64/102 64/66/102
f 56/56/106 54/54/107 74/78/104 75/79/105
f 55/55/108 57/57/108 63/65/108 62/64/108
f 58/58/111 56/56/112 75/79/109 76/80/110
f 57/60/115 59/59/113 69/71/113 63/73/114
f 60/62/118 58/61/116 76/81/116 77/82/117
f 6/6/120 60/62/121 77/82/119 70/74/120
f 59/59/124 5/5/123 68/70/122 69/71/123
f 70/74/125 77/82/126 78/83/125 79/84/126
f 77/82/127 76/81/128 80/85/129 78/83/130
f 72/76/131 71/75/131 81/86/131 82/87/132
f 71/75/133 70/74/134 79/84/133 81/86/135
f 74/78/136 73/77/137 83/88/138 84/89/138
f 73/77/139 72/76/140 82/87/140 83/88/141
f 76/80/142 75/79/142 85/90/142 80/91/143
f 75/79/144 74/78/145 84/89/146 85/90/147
f 2/2/148 1/1/148 79/84/148 78/83/148
f 3/92/149 2/2/149 78/83/149 80/85/149
f 86/93/150 87/94/150 82/87/150 81/86/150
f 1/1/151 86/93/151 81/86/151 79/84/151
f 88/95/152 33/33/152 84/89/152 83/88/152
f 87/94/153 88/95/153 83/88/153 82/87/153
f 34/34/154 3/96/154 80/91/154 85/90/154
f 33/33/155 34/34/155 85/90/155 84/89/155
f 4/4/4 33/33/37 88/95/156 87/94/157
f 1/1/1 4/4/4 87/94/157 86/93/158
f 89/97/160 90/98/160 61/72/159 13/13/159
f 12/12/162 91/99/161 89/97/163 13/13/161
f 12/12/164 11/11/165 92/100/165 91/101/166
f 11/11/167 40/40/167 93/102/168 92/100/167
f 93/102/171 40/40/169 45/45/170 94/103/169
f 90/104/2 94/103/2 45/45/2 61/63/2
f 97/107/172 98/108/172 95/105/172 96/106/172
f 99/109/173 100/110/174 97/107/173 96/106/173
f 99/111/175 101/112/175 102/113/175 100/114/175
f 101/112/176 103/115/177 104/116/178 102/113/176
f 104/116/182 103/115/179 105/117/180 106/118/181
f 98/120/184 106/118/183 105/117/183 95/119/184
f 107/121/185 108/122/186 109/123/187 110/124/186
f 108/122/188 111/125/189 112/126/190 109/123/191
f 111/127/192 113/128/193 114/129/193 112/130/194
f 113/128/193 115/131/192 116/132/194 114/129/193
f 115/131/195 117/133/196 118/134/197 116/132/198
f 117/133/199 107/135/200 110/136/201 118/134/201
f 28/28/32 27/27/32 110/124/32 109/123/32
f 29/29/202 28/28/202 109/123/202 112/126/202
f 26/26/55 29/29/55 112/126/55 114/137/55
f 51/51/55 26/26/55 114/137/55 116/138/55
f 52/52/203 51/51/203 116/139/203 118/140/203
f 27/27/32 52/52/32 118/140/32 110/124/32
f 96/106/32 95/105/32 90/98/32 89/97/32
f 98/108/55 97/107/55 108/122/55 107/121/55
f 99/109/205 96/106/204 89/97/204 91/99/204
f 97/107/208 100/110/209 111/125/206 108/122/207
f 101/112/210 99/111/210 91/101/210 92/100/210
f 100/114/211 102/113/211 113/128/211 111/127/211
f 103/115/210 101/112/210 92/100/210 93/102/210
f 102/113/212 104/116/212 115/131/212 113/128/212
f 105/117/214 103/115/215 93/102/213 94/103/213
f 104/116/217 106/118/218 117/133/216 115/131/217
f 95/119/32 105/117/32 94/103/32 90/104/32
f 106/118/55 98/120/55 107/135/55 117/133/55
